<svg width="16" height="32" viewBox="0 0 16 32" fill="none" xmlns="http://www.w3.org/2000/svg">
<path d="M15.8947 2.00664C15.8942 2.5369 15.6832 3.04527 15.308 3.41998L5.07866 13.6493C4.76903 13.9589 4.52342 14.3264 4.35585 14.7308C4.18828 15.1353 4.10203 15.5688 4.10203 16.0066C4.10203 16.4445 4.18828 16.878 4.35585 17.2825C4.52342 17.6869 4.76903 18.0544 5.07866 18.364L15.2947 28.58C15.659 28.9572 15.8606 29.4624 15.856 29.9868C15.8514 30.5112 15.6411 31.0128 15.2703 31.3836C14.8995 31.7544 14.3979 31.9648 13.8735 31.9693C13.3491 31.9739 12.8439 31.7723 12.4667 31.408L2.25066 21.2C0.87701 19.8236 0.10553 17.9585 0.10553 16.014C0.10553 14.0694 0.87701 12.2043 2.25066 10.828L12.48 0.591978C12.7597 0.31209 13.1161 0.121463 13.5042 0.0442173C13.8923 -0.0330282 14.2946 0.00657996 14.6601 0.15803C15.0257 0.30948 15.3381 0.565965 15.5579 0.89503C15.7776 1.22409 15.8948 1.61095 15.8947 2.00664Z" fill="white"/>
</svg>
