<svg width="415" height="422" viewBox="0 0 415 422" fill="none" xmlns="http://www.w3.org/2000/svg">
<path d="M321.165 177.351C294.77 220.714 229.816 357.103 115.193 220.714C0.569122 84.3253 10.557 49.6204 10.557 49.6204C10.557 49.6204 327.967 -13.0596 393.416 20.0257C458.865 53.111 347.56 133.989 321.165 177.351Z" fill="#4DC4A7"/>
<circle cx="127.209" cy="380.808" r="13.7143" transform="rotate(-88.4186 127.209 380.808)" fill="#FFD25E"/>
<circle cx="247.741" cy="375.469" r="13.7143" transform="rotate(-67.146 247.741 375.469)" fill="#4DC3A7"/>
<circle cx="161.194" cy="295.245" r="7.04383" transform="rotate(-67.146 161.194 295.245)" fill="#FFD25E"/>
<circle cx="175.684" cy="406.499" r="7.04383" transform="rotate(-67.146 175.684 406.499)" fill="#FFD25E"/>
<circle cx="235.368" cy="338.158" r="7.04383" transform="rotate(-34.5852 235.368 338.158)" fill="#FFD25E"/>
<circle cx="129.208" cy="308.424" r="13.7143" transform="rotate(-88.4186 129.208 308.424)" fill="#4DC3A7"/>
<circle cx="256.49" cy="293.433" r="13.7143" transform="rotate(-67.146 256.49 293.433)" fill="#FFD25E"/>
<circle cx="114.927" cy="341.163" r="7.04383" transform="rotate(-67.146 114.927 341.163)" fill="#FFD25E"/>
<circle cx="176.956" cy="367.913" r="13.7143" transform="rotate(-88.4186 176.956 367.913)" fill="#4DC3A7"/>
<circle cx="300.662" cy="389.043" r="13.7143" transform="rotate(-67.146 300.662 389.043)" fill="#FFD25E"/>
<circle cx="106.933" cy="272.893" r="7.04383" transform="rotate(-67.146 106.933 272.893)" fill="#4DC3A7"/>
<circle cx="195.926" cy="316.851" r="13.7143" transform="rotate(-88.4186 195.926 316.851)" fill="#FFD25E"/>
<circle cx="303.074" cy="315.572" r="13.7143" transform="rotate(-67.146 303.074 315.572)" fill="#4DC3A7"/>
<circle cx="154.5" cy="338.962" r="7.04383" transform="rotate(-67.146 154.5 338.962)" fill="#4DC3A7"/>
<circle cx="220.491" cy="388.693" r="7.04383" transform="rotate(-67.146 220.491 388.693)" fill="#4DC3A7"/>
<circle cx="284.601" cy="354.807" r="7.04383" transform="rotate(-34.5852 284.601 354.807)" fill="#4DC3A7"/>
</svg>
