<svg width="36" height="36" viewBox="0 0 36 36" fill="none" xmlns="http://www.w3.org/2000/svg">
<g clip-path="url(#clip0_88_867)">
<path d="M34.5 24C34.1022 24 33.7206 24.158 33.4393 24.4393C33.158 24.7206 33 25.1022 33 25.5V28.5C33 29.6935 32.5259 30.8381 31.682 31.682C30.8381 32.5259 29.6935 33 28.5 33H25.5C25.1022 33 24.7206 33.158 24.4393 33.4393C24.158 33.7206 24 34.1022 24 34.5C24 34.8978 24.158 35.2794 24.4393 35.5607C24.7206 35.842 25.1022 36 25.5 36H28.5C30.4884 35.9976 32.3947 35.2067 33.8007 33.8007C35.2067 32.3947 35.9976 30.4884 36 28.5V25.5C36 25.1022 35.842 24.7206 35.5607 24.4393C35.2794 24.158 34.8978 24 34.5 24Z" fill="#2E2E2E"/>
<path d="M1.5 12C1.89782 12 2.27936 11.842 2.56066 11.5607C2.84196 11.2794 3 10.8978 3 10.5V7.5C3 6.30653 3.47411 5.16193 4.31802 4.31802C5.16193 3.47411 6.30653 3 7.5 3H10.5C10.8978 3 11.2794 2.84196 11.5607 2.56066C11.842 2.27936 12 1.89782 12 1.5C12 1.10218 11.842 0.720644 11.5607 0.43934C11.2794 0.158035 10.8978 0 10.5 0L7.5 0C5.51161 0.00238179 3.60534 0.793323 2.19933 2.19933C0.793323 3.60534 0.00238179 5.51161 0 7.5L0 10.5C0 10.8978 0.158035 11.2794 0.43934 11.5607C0.720644 11.842 1.10218 12 1.5 12Z" fill="#2E2E2E"/>
<path d="M10.5 33H7.5C6.30653 33 5.16193 32.5259 4.31802 31.682C3.47411 30.8381 3 29.6935 3 28.5V25.5C3 25.1022 2.84196 24.7206 2.56066 24.4393C2.27936 24.158 1.89782 24 1.5 24C1.10218 24 0.720644 24.158 0.43934 24.4393C0.158035 24.7206 0 25.1022 0 25.5L0 28.5C0.00238179 30.4884 0.793323 32.3947 2.19933 33.8007C3.60534 35.2067 5.51161 35.9976 7.5 36H10.5C10.8978 36 11.2794 35.842 11.5607 35.5607C11.842 35.2794 12 34.8978 12 34.5C12 34.1022 11.842 33.7206 11.5607 33.4393C11.2794 33.158 10.8978 33 10.5 33Z" fill="#2E2E2E"/>
<path d="M28.5 0H25.5C25.1022 0 24.7206 0.158035 24.4393 0.43934C24.158 0.720644 24 1.10218 24 1.5C24 1.89782 24.158 2.27936 24.4393 2.56066C24.7206 2.84196 25.1022 3 25.5 3H28.5C29.6935 3 30.8381 3.47411 31.682 4.31802C32.5259 5.16193 33 6.30653 33 7.5V10.5C33 10.8978 33.158 11.2794 33.4393 11.5607C33.7206 11.842 34.1022 12 34.5 12C34.8978 12 35.2794 11.842 35.5607 11.5607C35.842 11.2794 36 10.8978 36 10.5V7.5C35.9976 5.51161 35.2067 3.60534 33.8007 2.19933C32.3947 0.793323 30.4884 0.00238179 28.5 0Z" fill="#2E2E2E"/>
<path d="M18 16.5C21.3137 16.5 24 13.8137 24 10.5C24 7.18629 21.3137 4.5 18 4.5C14.6863 4.5 12 7.18629 12 10.5C12 13.8137 14.6863 16.5 18 16.5Z" fill="#2E2E2E"/>
<path d="M16.5 19.5C14.1138 19.5024 11.826 20.4514 10.1387 22.1387C8.45136 23.826 7.50238 26.1138 7.5 28.5C7.5 28.8978 7.65804 29.2794 7.93934 29.5607C8.22064 29.842 8.60218 30 9 30H27C27.3978 30 27.7794 29.842 28.0607 29.5607C28.342 29.2794 28.5 28.8978 28.5 28.5C28.4976 26.1138 27.5486 23.826 25.8613 22.1387C24.174 20.4514 21.8862 19.5024 19.5 19.5H16.5Z" fill="#2E2E2E"/>
</g>
<defs>
<clipPath id="clip0_88_867">
<rect width="36" height="36" fill="white"/>
</clipPath>
</defs>
</svg>
