<svg width="36" height="36" viewBox="0 0 36 36" fill="none" xmlns="http://www.w3.org/2000/svg">
<path d="M13.5 18C8.5365 18 4.5 13.9635 4.5 9C4.5 4.0365 8.5365 0 13.5 0C18.4635 0 22.5 4.0365 22.5 9C22.5 13.9635 18.4635 18 13.5 18ZM19.905 29.22C18.6855 30.4395 18 32.0925 18 33.8175V36H20.1825C21.9075 36 23.5605 35.3145 24.78 34.095L34.9905 23.8845C36.336 22.539 36.336 20.355 34.9905 19.0095C33.645 17.664 31.461 17.664 30.1155 19.0095L19.905 29.22ZM15 33.8175C15 31.2795 15.9885 28.893 17.7825 27.099L21.3465 23.535C19.1325 21.945 16.428 20.9985 13.5 20.9985C6.057 21 0 27.057 0 34.5C0 35.328 0.672 36 1.5 36H15V33.8175Z" fill="#2E2E2E"/>
</svg>
