<svg width="64" height="64" viewBox="0 0 64 64" fill="none" xmlns="http://www.w3.org/2000/svg">
<g clip-path="url(#clip0_52_19)">
<path d="M20 34.6667C17.6266 34.6667 15.3065 33.9629 13.3332 32.6443C11.3598 31.3257 9.8217 29.4516 8.91345 27.2589C8.00519 25.0662 7.76755 22.6534 8.23058 20.3256C8.6936 17.9978 9.83649 15.8596 11.5147 14.1814C13.1929 12.5032 15.3311 11.3603 17.6589 10.8972C19.9867 10.4342 22.3995 10.6719 24.5922 11.5801C26.7849 12.4884 28.6591 14.0264 29.9776 15.9998C31.2962 17.9732 32 20.2933 32 22.6667C31.9965 25.8482 30.7311 28.8984 28.4814 31.1481C26.2317 33.3977 23.1815 34.6631 20 34.6667ZM40 53.3333C39.9958 49.7984 38.5896 46.4095 36.0901 43.9099C33.5905 41.4104 30.2016 40.0042 26.6667 40H13.3333C9.79841 40.0042 6.40949 41.4104 3.90992 43.9099C1.41035 46.4095 0.00423429 49.7984 0 53.3333L0 64H40V53.3333ZM46.6667 24C44.2933 24 41.9732 23.2962 39.9998 21.9776C38.0264 20.6591 36.4884 18.7849 35.5801 16.5922C34.6719 14.3995 34.4342 11.9867 34.8972 9.65892C35.3603 7.33115 36.5032 5.19295 38.1814 3.51472C39.8596 1.83649 41.9978 0.693605 44.3256 0.230582C46.6534 -0.232441 49.0662 0.00519943 51.2589 0.913451C53.4516 1.8217 55.3257 3.35977 56.6443 5.33316C57.9629 7.30655 58.6667 9.62663 58.6667 12C58.6631 15.1815 57.3977 18.2317 55.1481 20.4814C52.8984 22.7311 49.8482 23.9965 46.6667 24ZM50.6667 29.3333H37.3333C36.8653 29.3548 36.3988 29.402 35.936 29.4747C34.9664 31.7182 33.5343 33.7318 31.7333 35.384C35.6435 36.4904 39.0865 38.8411 41.5406 42.0801C43.9947 45.319 45.3262 49.2697 45.3333 53.3333H64V42.6667C63.9958 39.1318 62.5897 35.7428 60.0901 33.2433C57.5905 30.7437 54.2016 29.3376 50.6667 29.3333Z" fill="white"/>
</g>
<defs>
<clipPath id="clip0_52_19">
<rect width="64" height="64" fill="white"/>
</clipPath>
</defs>
</svg>
