<svg width="36" height="36" viewBox="0 0 36 36" fill="none" xmlns="http://www.w3.org/2000/svg">
<g clip-path="url(#clip0_88_851)">
<path d="M34.6755 14.8186L27.2505 7.39355L24.069 10.5751L29.25 15.7501H9.9255V20.2501H29.25L24.075 25.4251L27.2565 28.6066L34.6815 21.1816C35.5243 20.3369 35.9972 19.1921 35.996 17.9988C35.9949 16.8056 35.5199 15.6616 34.6755 14.8186Z" fill="#2E2E2E"/>
<path d="M14.991 30.75C14.991 30.9489 14.912 31.1397 14.7713 31.2803C14.6307 31.421 14.4399 31.5 14.241 31.5H5.259C5.06009 31.5 4.86933 31.421 4.72867 31.2803C4.58802 31.1397 4.509 30.9489 4.509 30.75V5.29651C4.509 5.0976 4.58802 4.90683 4.72867 4.76618C4.86933 4.62553 5.06009 4.54651 5.259 4.54651H14.241C14.4399 4.54651 14.6307 4.62553 14.7713 4.76618C14.912 4.90683 14.991 5.0976 14.991 5.29651V12.5175H19.491V5.29651C19.489 3.90473 18.9353 2.57053 17.9511 1.58639C16.967 0.602253 15.6328 0.0484928 14.241 0.0465088H5.259C3.86723 0.0484928 2.53302 0.602253 1.54888 1.58639C0.564747 2.57053 0.0109867 3.90473 0.00900269 5.29651V30.75C0.00900269 32.1424 0.562126 33.4778 1.54669 34.4623C2.53126 35.4469 3.86662 36 5.259 36H14.241C15.6334 36 16.9688 35.4469 17.9533 34.4623C18.9379 33.4778 19.491 32.1424 19.491 30.75V23.5245H14.991V30.75Z" fill="#2E2E2E"/>
</g>
<defs>
<clipPath id="clip0_88_851">
<rect width="36" height="36" fill="white"/>
</clipPath>
</defs>
</svg>
