<svg width="76" height="102" viewBox="0 0 76 102" fill="none" xmlns="http://www.w3.org/2000/svg">
<path d="M42.255 0.852705L5.12246 12.898C4.27811 13.1713 3.49596 13.6085 2.82083 14.1845C2.1457 14.7606 1.59085 15.4642 1.18805 16.255C0.785247 17.0458 0.542417 17.9083 0.473464 18.7931C0.404511 19.6779 0.510789 20.5676 0.786213 21.4113L25.245 96.8116C25.5181 97.6553 25.9548 98.4369 26.5302 99.1116C27.1056 99.7864 27.8083 100.341 28.5982 100.744C29.3882 101.147 30.2498 101.39 31.1338 101.46C32.0179 101.53 32.907 101.425 33.7503 101.15L70.8828 89.1052C74.4248 87.9562 76.3666 84.1431 75.2177 80.6012L50.7589 5.20088C49.6073 1.65088 45.797 -0.29626 42.255 0.852705ZM18.5276 13.0849L31.7729 8.78831L32.7722 11.869L19.5269 16.1656L18.5276 13.0849ZM50.2588 88.7773C49.1718 89.1287 47.9899 89.0351 46.9718 88.517C45.9537 87.9989 45.1823 87.0985 44.8267 86.0129C44.5309 84.9418 44.6598 83.798 45.1864 82.8196C45.7131 81.8412 46.597 81.1038 47.6539 80.7609C48.7109 80.4181 49.8593 80.4962 50.86 80.9792C51.8607 81.4621 52.6365 82.3125 53.0258 83.3532C53.6645 85.3361 52.5091 88.0473 50.2588 88.7773ZM65.872 68.1913L25.5264 81.2788L7.03239 24.2663L47.378 11.1788L65.872 68.1913Z" fill="black"/>
</svg>
