<svg width="64" height="64" viewBox="0 0 64 64" fill="none" xmlns="http://www.w3.org/2000/svg">
<g clip-path="url(#clip0_55_23)">
<path d="M24 32C15.176 32 8 24.824 8 16C8 7.176 15.176 0 24 0C32.824 0 40 7.176 40 16C40 24.824 32.824 32 24 32ZM35.3867 51.9467C33.2187 54.1147 32 57.0533 32 60.12V64H35.88C38.9467 64 41.8853 62.7813 44.0533 60.6133L62.2053 42.4613C64.5973 40.0693 64.5973 36.1867 62.2053 33.7947C59.8133 31.4027 55.9307 31.4027 53.5387 33.7947L35.3867 51.9467ZM26.6667 60.12C26.6667 55.608 28.424 51.3653 31.6133 48.176L37.9493 41.84C34.0133 39.0133 29.2053 37.3307 24 37.3307C10.768 37.3333 0 48.1013 0 61.3333C0 62.8053 1.19467 64 2.66667 64H26.6667V60.12Z" fill="white"/>
</g>
<defs>
<clipPath id="clip0_55_23">
<rect width="64" height="64" fill="white"/>
</clipPath>
</defs>
</svg>
