<svg width="64" height="64" viewBox="0 0 64 64" fill="none" xmlns="http://www.w3.org/2000/svg">
<g clip-path="url(#clip0_52_21)">
<path d="M10.6907 21.016C14.8076 15.8786 20.6233 12.3797 27.0907 11.1493C26.2149 10.196 25.6356 9.00841 25.4235 7.73139C25.2113 6.45437 25.3756 5.14322 25.8962 3.958C26.4168 2.77278 27.2712 1.76476 28.3551 1.057C29.439 0.349236 30.7055 -0.0276489 32 -0.0276489C33.2945 -0.0276489 34.561 0.349236 35.6449 1.057C36.7288 1.76476 37.5832 2.77278 38.1038 3.958C38.6244 5.14322 38.7887 6.45437 38.5766 7.73139C38.3645 9.00841 37.7851 10.196 36.9093 11.1493C43.3768 12.3797 49.1925 15.8786 53.3093 21.016C49.8315 23.6133 47.0366 27.0167 45.1653 30.9333C43.6957 28.7993 41.7294 27.0544 39.4358 25.849C37.1421 24.6436 34.5898 24.0138 31.9987 24.0138C29.4076 24.0138 26.8553 24.6436 24.5616 25.849C22.2679 27.0544 20.3016 28.7993 18.832 30.9333C16.9626 27.0163 14.1685 23.6127 10.6907 21.016ZM56.0854 58.6667H7.91468C7.20743 58.678 6.53365 58.9698 6.04156 59.4779C5.54946 59.986 5.27936 60.6688 5.29068 61.376C5.30199 62.0832 5.5938 62.757 6.1019 63.2491C6.60999 63.7412 7.29277 64.0113 8.00001 64H56C56.7073 64.0113 57.39 63.7412 57.8981 63.2491C58.4062 62.757 58.698 62.0832 58.7094 61.376C58.7207 60.6688 58.4506 59.986 57.9585 59.4779C57.4664 58.9698 56.7926 58.678 56.0854 58.6667ZM57.56 53.3333C57.56 53.3333 64 30.0053 64 28C64.019 27.4696 63.9286 26.941 63.7343 26.447C63.54 25.9531 63.2461 25.5045 62.8708 25.1293C62.4955 24.754 62.0469 24.46 61.553 24.2657C61.0591 24.0714 60.5304 23.981 60 24C54.6667 24 48 34.28 48 40C48 40.7072 47.7191 41.3855 47.219 41.8856C46.7189 42.3857 46.0406 42.6667 45.3333 42.6667C44.6261 42.6667 43.9478 42.3857 43.4477 41.8856C42.9476 41.3855 42.6667 40.7072 42.6667 40C42.6667 37.171 41.5429 34.4579 39.5425 32.4575C37.5421 30.4571 34.829 29.3333 32 29.3333C29.171 29.3333 26.4579 30.4571 24.4575 32.4575C22.4572 34.4579 21.3333 37.171 21.3333 40C21.3333 40.7072 21.0524 41.3855 20.5523 41.8856C20.0522 42.3857 19.3739 42.6667 18.6667 42.6667C17.9594 42.6667 17.2812 42.3857 16.7811 41.8856C16.281 41.3855 16 40.7072 16 40C16 34.28 9.33335 24 4.00001 24C3.4696 23.981 2.94097 24.0714 2.44706 24.2657C1.95315 24.46 1.50456 24.754 1.12927 25.1293C0.753973 25.5045 0.460017 25.9531 0.265729 26.447C0.071442 26.941 -0.0190109 27.4696 1.05719e-05 28C1.05719e-05 30.0053 6.44001 53.3333 6.44001 53.3333H57.56Z" fill="white"/>
</g>
<defs>
<clipPath id="clip0_52_21">
<rect width="64" height="64" fill="white"/>
</clipPath>
</defs>
</svg>
