<svg width="64" height="64" viewBox="0 0 64 64" fill="none" xmlns="http://www.w3.org/2000/svg">
<g clip-path="url(#clip0_52_14)">
<path d="M14.6667 56C12.8986 56 11.2029 55.2976 9.95262 54.0474C8.70238 52.7971 8 51.1014 8 49.3333V4C8 2.93913 7.57857 1.92172 6.82843 1.17157C6.07828 0.421427 5.06087 0 4 0C2.93913 0 1.92172 0.421427 1.17157 1.17157C0.421427 1.92172 0 2.93913 0 4L0 49.3333C0 53.2232 1.54523 56.9537 4.29577 59.7042C7.0463 62.4548 10.7768 64 14.6667 64H60C61.0609 64 62.0783 63.5786 62.8284 62.8284C63.5786 62.0783 64 61.0609 64 60C64 58.9391 63.5786 57.9217 62.8284 57.1716C62.0783 56.4214 61.0609 56 60 56H14.6667Z" fill="white"/>
<path d="M52 48C53.0609 48 54.0783 47.5786 54.8284 46.8284C55.5786 46.0783 56 45.0609 56 44V28C56 26.9391 55.5786 25.9217 54.8284 25.1716C54.0783 24.4214 53.0609 24 52 24C50.9391 24 49.9217 24.4214 49.1716 25.1716C48.4214 25.9217 48 26.9391 48 28V44C48 45.0609 48.4214 46.0783 49.1716 46.8284C49.9217 47.5786 50.9391 48 52 48Z" fill="white"/>
<path d="M20 48C21.0609 48 22.0783 47.5786 22.8284 46.8284C23.5786 46.0783 24 45.0609 24 44V28C24 26.9391 23.5786 25.9217 22.8284 25.1716C22.0783 24.4214 21.0609 24 20 24C18.9391 24 17.9217 24.4214 17.1716 25.1716C16.4214 25.9217 16 26.9391 16 28V44C16 45.0609 16.4214 46.0783 17.1716 46.8284C17.9217 47.5786 18.9391 48 20 48Z" fill="white"/>
<path d="M36 48C37.0609 48 38.0783 47.5786 38.8284 46.8284C39.5786 46.0783 40 45.0609 40 44V14.6667C40 13.6058 39.5786 12.5884 38.8284 11.8383C38.0783 11.0881 37.0609 10.6667 36 10.6667C34.9391 10.6667 33.9217 11.0881 33.1716 11.8383C32.4214 12.5884 32 13.6058 32 14.6667V44C32 45.0609 32.4214 46.0783 33.1716 46.8284C33.9217 47.5786 34.9391 48 36 48Z" fill="white"/>
</g>
<defs>
<clipPath id="clip0_52_14">
<rect width="64" height="64" fill="white"/>
</clipPath>
</defs>
</svg>
