<svg width="48" height="48" viewBox="0 0 48 48" fill="none" xmlns="http://www.w3.org/2000/svg">
<path fill-rule="evenodd" clip-rule="evenodd" d="M10 16C10 16.5304 9.78929 17.0391 9.41421 17.4142C9.03914 17.7893 8.53043 18 8 18C7.46957 18 6.96086 17.7893 6.58579 17.4142C6.21071 17.0391 6 16.5304 6 16V11.846C6 10.326 6.164 9.476 6.638 8.592C7.084 7.754 7.754 7.084 8.592 6.638C9.476 6.164 10.324 6 11.846 6H16C16.5304 6 17.0391 6.21071 17.4142 6.58579C17.7893 6.96086 18 7.46957 18 8C18 8.53043 17.7893 9.03914 17.4142 9.41421C17.0391 9.78929 16.5304 10 16 10H11.846C10.928 10 10.706 10.044 10.478 10.164C10.3432 10.2334 10.2334 10.3432 10.164 10.478C10.044 10.704 10 10.928 10 11.846V16ZM16 38C16.5304 38 17.0391 38.2107 17.4142 38.5858C17.7893 38.9609 18 39.4696 18 40C18 40.5304 17.7893 41.0391 17.4142 41.4142C17.0391 41.7893 16.5304 42 16 42H11.846C10.326 42 9.476 41.836 8.592 41.362C7.76054 40.9199 7.08011 40.2395 6.638 39.408C6.164 38.524 6 37.676 6 36.154V32C6 31.4696 6.21071 30.9609 6.58579 30.5858C6.96086 30.2107 7.46957 30 8 30C8.53043 30 9.03914 30.2107 9.41421 30.5858C9.78929 30.9609 10 31.4696 10 32V36.154C10 37.072 10.044 37.294 10.164 37.522C10.24 37.662 10.338 37.762 10.478 37.836C10.704 37.956 10.928 38 11.846 38H16ZM30 8C30 8.53043 30.2107 9.03914 30.5858 9.41421C30.9609 9.78929 31.4696 10 32 10H36.154C37.072 10 37.294 10.044 37.522 10.164C37.662 10.24 37.762 10.338 37.836 10.478C37.956 10.704 38 10.928 38 11.846V16C38 16.5304 38.2107 17.0391 38.5858 17.4142C38.9609 17.7893 39.4696 18 40 18C40.5304 18 41.0391 17.7893 41.4142 17.4142C41.7893 17.0391 42 16.5304 42 16V11.846C42 10.326 41.836 9.476 41.362 8.592C40.9199 7.76054 40.2395 7.08011 39.408 6.638C38.524 6.164 37.676 6 36.154 6H32C31.4696 6 30.9609 6.21071 30.5858 6.58579C30.2107 6.96086 30 7.46957 30 8ZM38 32C38 31.4696 38.2107 30.9609 38.5858 30.5858C38.9609 30.2107 39.4696 30 40 30C40.5304 30 41.0391 30.2107 41.4142 30.5858C41.7893 30.9609 42 31.4696 42 32V36.154C42 37.674 41.836 38.524 41.362 39.408C40.9198 40.2394 40.2394 40.9198 39.408 41.362C38.524 41.836 37.676 42 36.154 42H32C31.4696 42 30.9609 41.7893 30.5858 41.4142C30.2107 41.0391 30 40.5304 30 40C30 39.4696 30.2107 38.9609 30.5858 38.5858C30.9609 38.2107 31.4696 38 32 38H36.154C37.072 38 37.294 37.956 37.522 37.836C37.6569 37.7667 37.7667 37.6569 37.836 37.522C37.956 37.296 38 37.072 38 36.154V32ZM6 22C5.46957 22 4.96086 22.2107 4.58579 22.5858C4.21071 22.9609 4 23.4696 4 24C4 24.5304 4.21071 25.0391 4.58579 25.4142C4.96086 25.7893 5.46957 26 6 26H42C42.5304 26 43.0391 25.7893 43.4142 25.4142C43.7893 25.0391 44 24.5304 44 24C44 23.4696 43.7893 22.9609 43.4142 22.5858C43.0391 22.2107 42.5304 22 42 22H6Z" fill="white"/>
</svg>
